<svg width="16" height="16" viewBox="0 0 16 16" fill="none" xmlns="http://www.w3.org/2000/svg">
<g clip-path="url(#clip0_1_17347)">
<path d="M8.00004 2.66665C9.28671 2.66665 11.3334 3.59998 11.3334 6.09998C11.3334 7.53998 10.1867 9.21331 8.00004 10.98C5.81337 9.21331 4.66671 7.53331 4.66671 6.09998C4.66671 3.59998 6.71337 2.66665 8.00004 2.66665ZM8.00004 1.33331C5.82004 1.33331 3.33337 2.97331 3.33337 6.09998C3.33337 8.17998 4.88671 10.3733 8.00004 12.6666C11.1134 10.3733 12.6667 8.17998 12.6667 6.09998C12.6667 2.97331 10.18 1.33331 8.00004 1.33331Z" fill="#828282"/>
<path d="M8.00004 4.66669C7.26671 4.66669 6.66671 5.26669 6.66671 6.00002C6.66671 6.73335 7.26671 7.33335 8.00004 7.33335C8.35366 7.33335 8.6928 7.19288 8.94285 6.94283C9.1929 6.69278 9.33337 6.35364 9.33337 6.00002C9.33337 5.6464 9.1929 5.30726 8.94285 5.05721C8.6928 4.80716 8.35366 4.66669 8.00004 4.66669ZM3.33337 13.3334H12.6667V14.6667H3.33337V13.3334Z" fill="#828282"/>
</g>
<defs>
<clipPath id="clip0_1_17347">
<rect width="16" height="16" fill="white"/>
</clipPath>
</defs>
</svg>
