<svg width="16" height="16" viewBox="0 0 16 16" fill="none" xmlns="http://www.w3.org/2000/svg">
<g clip-path="url(#clip0_1_17350)">
<path d="M12 5.33335H11.3333V4.00002C11.3333 2.16002 9.83996 0.666687 7.99996 0.666687C6.15996 0.666687 4.66663 2.16002 4.66663 4.00002V5.33335H3.99996C3.26663 5.33335 2.66663 5.93335 2.66663 6.66669V13.3334C2.66663 14.0667 3.26663 14.6667 3.99996 14.6667H12C12.7333 14.6667 13.3333 14.0667 13.3333 13.3334V6.66669C13.3333 5.93335 12.7333 5.33335 12 5.33335ZM5.99996 4.00002C5.99996 2.89335 6.89329 2.00002 7.99996 2.00002C9.10663 2.00002 9.99996 2.89335 9.99996 4.00002V5.33335H5.99996V4.00002ZM12 13.3334H3.99996V6.66669H12V13.3334ZM7.99996 11.3334C8.73329 11.3334 9.33329 10.7334 9.33329 10C9.33329 9.26669 8.73329 8.66669 7.99996 8.66669C7.26663 8.66669 6.66663 9.26669 6.66663 10C6.66663 10.7334 7.26663 11.3334 7.99996 11.3334Z" fill="#828282"/>
</g>
<defs>
<clipPath id="clip0_1_17350">
<rect width="16" height="16" fill="white"/>
</clipPath>
</defs>
</svg>
